<?xml version="1.0" standalone="no"?>
<!DOCTYPE svg PUBLIC "-//W3C//DTD SVG 20010904//EN"
 "http://www.w3.org/TR/2001/REC-SVG-20010904/DTD/svg10.dtd">
<svg version="1.0" xmlns="http://www.w3.org/2000/svg"
 width="1280.000000pt" height="962.000000pt" viewBox="0 0 1280.000000 962.000000"
 preserveAspectRatio="xMidYMid meet">
<metadata>
Created by potrace 1.15, written by Peter Selinger 2001-2017
</metadata>
<g transform="translate(0.000000,962.000000) scale(0.100000,-0.100000)"
fill="#000000" stroke="none">
<path d="M3130 9613 c-39 -14 -60 -46 -60 -91 0 -37 6 -50 34 -78 45 -45 84
-46 120 -3 21 24 26 41 26 84 0 46 -4 56 -26 74 -26 20 -62 26 -94 14z"/>
<path d="M8472 9588 c-23 -25 -55 -96 -72 -159 -10 -37 -8 -47 20 -106 53
-114 5 -107 -81 10 -56 76 -72 81 -100 27 -35 -64 -26 -107 42 -211 34 -51 63
-99 66 -106 10 -26 -16 -12 -70 37 -30 28 -57 50 -61 50 -9 0 -46 -78 -46 -98
0 -29 119 -191 152 -208 41 -21 172 -20 205 1 26 18 57 79 50 100 -3 7 -34 15
-73 18 -135 13 -96 45 67 56 66 5 114 13 124 21 43 36 61 122 28 135 -10 3
-55 9 -100 12 -127 9 -141 35 -29 53 32 5 65 15 74 22 24 20 82 153 82 188 0
39 -40 110 -86 150 -31 27 -41 30 -103 30 -57 0 -71 -3 -89 -22z"/>
<path d="M4312 9555 c-39 -44 -49 -92 -28 -133 34 -65 137 -61 166 7 25 61
-28 161 -85 161 -14 0 -36 -14 -53 -35z"/>
<path d="M7475 9508 c-37 -29 -75 -113 -75 -167 0 -48 40 -128 84 -170 20 -19
35 -24 73 -22 56 2 83 -6 83 -23 0 -24 -24 -34 -105 -45 -107 -15 -115 -25
-80 -89 36 -66 55 -72 177 -59 53 5 104 7 114 3 30 -11 -5 -35 -64 -45 -29 -4
-55 -11 -58 -14 -11 -11 5 -55 30 -84 21 -25 31 -28 78 -27 125 3 182 42 246
166 38 75 40 107 9 136 -34 33 -51 27 -92 -28 -67 -92 -75 -55 -14 71 23 46
45 97 50 113 11 37 -3 94 -32 130 -26 33 -39 25 -76 -48 -38 -75 -82 -136 -98
-136 -20 0 -19 6 10 100 l26 80 -20 45 c-29 65 -68 112 -103 124 -54 19 -132
14 -163 -11z"/>
<path d="M3290 9340 c-36 -39 -53 -50 -76 -50 -37 0 -54 -16 -54 -50 0 -57 79
-81 151 -46 41 19 89 88 89 127 0 25 -39 70 -59 69 -3 -1 -26 -23 -51 -50z"/>
<path d="M4127 9325 c-33 -32 29 -137 104 -175 73 -38 119 -19 119 49 0 44
-11 55 -59 65 -18 3 -51 22 -72 41 -42 38 -69 44 -92 20z"/>
<path d="M3443 9246 c-17 -14 -40 -46 -51 -70 -23 -48 -44 -56 -152 -56 -31 0
-61 -5 -68 -12 -16 -16 -15 -93 1 -106 20 -16 104 -24 172 -17 80 9 95 23 161
149 40 77 47 99 38 113 -18 29 -67 28 -101 -1z"/>
<path d="M4000 9247 c-35 -18 -31 -45 28 -179 l49 -113 122 2 c133 1 151 8
151 53 0 38 -17 49 -89 57 -85 8 -118 33 -161 118 -37 75 -55 86 -100 62z"/>
<path d="M3596 9164 c-13 -15 -51 -73 -83 -130 l-58 -103 -110 -1 c-60 0 -127
-5 -147 -11 -34 -9 -38 -13 -38 -43 0 -19 6 -38 13 -44 11 -9 237 -35 296 -34
35 0 53 23 146 187 l85 150 -23 18 c-48 38 -55 39 -81 11z"/>
<path d="M3855 9163 c-28 -27 -11 -95 59 -239 l64 -131 93 -11 c94 -11 150
-15 222 -13 31 1 39 6 48 28 15 40 -2 70 -48 82 -21 5 -88 13 -149 17 l-110 6
-35 86 c-60 151 -109 210 -144 175z"/>
<path d="M3737 9017 c-25 -39 -98 -214 -104 -250 -5 -32 37 -175 82 -282 l17
-40 30 59 c65 128 91 207 85 258 -6 49 -72 257 -86 271 -4 4 -15 -3 -24 -16z"/>
<path d="M8061 8937 c-31 -51 -71 -163 -71 -200 0 -32 15 -57 32 -57 5 0 27
19 49 43 l39 42 31 -33 c16 -18 37 -32 47 -30 28 5 37 51 21 100 -18 55 -89
162 -110 166 -10 2 -25 -11 -38 -31z"/>
<path d="M8895 8769 c-59 -9 -75 -27 -105 -107 -33 -93 -52 -130 -71 -148 -18
-16 -19 -16 -19 0 0 10 8 46 17 80 19 73 14 96 -21 96 -61 0 -150 -136 -151
-230 0 -52 51 -169 92 -212 21 -22 36 -28 70 -28 38 0 43 3 43 23 0 12 -9 42
-20 66 -44 95 -16 108 39 19 92 -148 91 -147 130 -158 41 -11 101 -4 101 12 0
6 -16 45 -36 87 -38 82 -54 141 -36 141 6 0 34 -27 63 -60 49 -57 54 -60 98
-60 102 0 157 37 191 127 26 70 25 93 -5 153 -32 63 -66 81 -170 87 -91 6 -90
6 -135 -76 -27 -49 -60 -67 -60 -33 0 11 14 60 31 109 17 48 33 96 36 106 6
19 -2 20 -82 6z"/>
<path d="M8404 8729 c-69 -11 -101 -25 -112 -46 -14 -27 3 -62 35 -69 55 -12
54 -10 51 -76 -3 -61 -2 -63 23 -66 20 -2 34 5 57 33 34 42 89 193 79 218 -7
19 -46 21 -133 6z"/>
<path d="M3190 8707 c0 -17 83 -151 127 -205 49 -60 116 -91 212 -99 113 -8
118 -5 85 59 -52 104 -113 185 -150 203 -31 15 -222 55 -261 55 -7 0 -13 -6
-13 -13z"/>
<path d="M3043 8685 c-35 -24 -29 -56 34 -193 l56 -124 -67 -136 c-36 -75 -66
-144 -66 -153 0 -24 36 -52 57 -44 10 3 28 19 40 34 30 38 142 240 150 269 3
15 -5 50 -21 91 -43 105 -130 266 -146 269 -8 1 -25 -5 -37 -13z"/>
<path d="M7698 8679 c-24 -14 -22 -44 6 -104 42 -91 127 -158 159 -126 9 9 7
24 -6 61 -20 56 -17 70 18 70 41 0 55 11 55 42 0 24 -7 32 -42 48 -47 21 -160
27 -190 9z"/>
<path d="M4079 8656 c-70 -15 -98 -33 -148 -96 -84 -106 -124 -205 -76 -186 9
3 57 10 108 16 127 15 131 17 166 46 33 28 134 175 146 212 6 21 5 22 -67 21
-40 0 -98 -6 -129 -13z"/>
<path d="M7263 8664 c-20 -9 -16 -27 27 -115 62 -128 51 -167 -25 -85 -42 46
-89 66 -155 66 -59 0 -101 -29 -132 -90 -37 -75 -37 -132 1 -191 49 -77 75
-94 136 -92 82 3 119 23 160 88 25 38 42 55 53 53 23 -5 19 -34 -23 -146 -19
-51 -35 -95 -35 -99 0 -13 122 6 139 22 10 9 35 55 55 103 45 109 74 158 87
145 6 -6 1 -36 -12 -80 -27 -88 -22 -103 29 -103 51 0 75 27 107 121 33 95 33
129 0 212 -38 94 -80 137 -133 137 -22 0 -44 -4 -47 -10 -3 -5 8 -42 25 -82
32 -76 36 -98 21 -98 -13 0 -50 50 -99 135 -22 39 -49 78 -59 88 -20 17 -98
31 -120 21z"/>
<path d="M8092 8648 c-5 -7 -12 -23 -16 -34 -11 -36 -42 -55 -100 -61 -37 -4
-56 -10 -56 -19 0 -8 10 -43 22 -79 20 -64 21 -68 5 -119 -26 -81 -25 -82 41
-89 73 -6 96 -20 129 -76 l26 -45 23 49 c34 69 59 92 110 100 24 3 45 9 48 13
2 4 -2 36 -10 72 -9 42 -12 89 -8 133 l7 67 -55 0 c-58 0 -72 9 -111 73 -19
29 -39 35 -55 15z"/>
<path d="M4368 8600 c-19 -21 -65 -94 -102 -161 l-68 -122 47 -104 c57 -122
123 -227 148 -231 10 -2 25 2 33 9 22 18 12 59 -47 197 -27 65 -49 120 -49
125 0 4 32 65 70 135 39 70 70 137 70 149 0 15 -9 24 -31 32 -18 6 -33 11 -35
11 -1 0 -18 -18 -36 -40z"/>
<path d="M2891 8581 l-24 -18 34 -96 33 -95 -37 -91 c-20 -50 -37 -95 -37
-100 0 -18 43 -51 66 -51 19 0 32 18 73 101 61 120 63 150 21 244 -55 123 -80
144 -129 106z"/>
<path d="M4517 8526 c-13 -13 -46 -69 -74 -123 l-51 -98 44 -100 c53 -117 71
-140 108 -131 45 11 49 37 20 118 -41 114 -41 112 6 209 43 88 44 88 24 110
-35 39 -52 42 -77 15z"/>
<path d="M2745 8497 l-28 -24 18 -51 c18 -49 18 -54 2 -87 -25 -52 -22 -83 8
-97 21 -10 30 -8 53 9 31 23 70 77 78 108 3 14 -8 49 -28 91 -38 79 -59 89
-103 51z"/>
<path d="M2484 8468 c-27 -13 -44 -49 -44 -95 0 -28 8 -44 39 -74 44 -44 58
-47 93 -19 38 29 61 85 53 126 -10 58 -84 90 -141 62z"/>
<path d="M4663 8442 c-17 -11 -73 -121 -73 -143 0 -11 13 -49 29 -84 33 -72
45 -78 98 -45 l32 19 -14 42 c-19 53 -19 77 1 125 l16 38 -31 28 c-33 30 -39
32 -58 20z"/>
<path d="M4859 8361 c-33 -34 -37 -66 -13 -117 27 -56 88 -79 131 -49 49 34
51 159 3 185 -38 20 -90 12 -121 -19z"/>
<path d="M8381 8381 c-12 -8 -11 -17 8 -61 12 -29 19 -55 16 -58 -4 -4 -25
-16 -48 -27 -49 -23 -56 -42 -28 -76 18 -23 25 -24 125 -23 65 0 111 5 118 12
8 8 1 32 -29 94 -44 89 -71 124 -110 139 -30 11 -34 11 -52 0z"/>
<path d="M7833 8343 c-34 -12 -45 -22 -64 -61 -35 -74 -80 -185 -76 -188 2 -2
52 -4 112 -5 107 -2 109 -1 132 26 32 36 26 66 -16 86 -45 21 -52 38 -42 95 5
27 7 52 3 55 -4 4 -26 0 -49 -8z"/>
<path d="M3420 8271 c-63 -13 -97 -39 -159 -121 -62 -82 -79 -119 -65 -141 10
-17 183 -5 228 16 61 29 217 219 202 244 -8 12 -149 13 -206 2z"/>
<path d="M3835 8248 c12 -39 98 -179 135 -219 34 -39 37 -39 173 -63 75 -13
137 -21 137 -19 0 9 -129 217 -148 239 -43 51 -139 83 -250 84 -51 0 -53 -1
-47 -22z"/>
<path d="M3690 8153 c-87 -206 -89 -240 -28 -419 23 -68 45 -124 48 -124 3 0
27 55 55 123 44 108 50 130 50 197 0 63 -6 92 -39 180 -21 58 -42 109 -46 113
-4 5 -22 -27 -40 -70z"/>
<path d="M1385 8194 c-16 -14 -45 -32 -62 -40 -18 -8 -33 -18 -33 -23 0 -5 16
-32 35 -60 32 -46 33 -51 14 -48 -42 4 -46 -27 -11 -95 32 -63 41 -111 22
-123 -5 -3 -28 24 -51 61 -33 52 -52 71 -84 85 -33 15 -44 26 -49 50 -7 38
-35 36 -54 -5 -12 -25 -18 -27 -47 -22 -56 11 -81 -30 -50 -84 19 -33 19 -50
0 -50 -22 0 -18 -37 4 -50 11 -5 36 -10 55 -10 31 0 37 -4 42 -27 9 -37 20
-43 76 -43 79 0 76 -37 -3 -47 -51 -7 -71 -19 -67 -42 5 -29 -10 -39 -50 -34
-28 4 -43 0 -55 -12 -21 -20 -22 -35 -2 -35 19 0 19 -21 0 -46 -8 -10 -15 -29
-15 -42 0 -30 45 -75 68 -68 12 4 21 -1 27 -17 16 -35 47 -28 68 15 16 32 22
37 43 32 33 -8 50 8 84 83 22 48 34 63 49 63 31 0 27 -34 -11 -107 -27 -51
-31 -66 -22 -80 7 -10 19 -17 28 -17 21 2 20 0 -9 -44 -14 -20 -25 -46 -25
-58 0 -24 24 -49 39 -40 5 4 22 -9 38 -29 15 -19 33 -35 39 -35 5 0 20 14 32
30 18 23 30 30 58 30 50 0 53 22 10 84 -20 29 -36 55 -36 58 0 3 11 3 24 1 48
-10 46 39 -4 102 -32 40 -42 105 -17 105 18 0 50 -36 72 -80 10 -19 24 -43 33
-53 14 -15 18 -16 37 -3 25 17 45 5 45 -26 0 -19 33 -58 50 -58 6 0 15 11 20
25 6 17 20 27 40 32 39 7 50 28 50 92 0 62 -17 101 -43 101 -11 0 -34 16 -52
36 -31 33 -35 35 -81 29 -59 -8 -107 7 -102 32 4 24 42 32 119 26 l66 -6 -5
33 c-5 37 8 50 54 50 52 0 71 34 29 50 l-25 10 20 20 c38 38 18 102 -35 112
-11 2 -25 14 -32 28 -11 23 -17 26 -41 22 -5 -1 -17 -20 -27 -42 -17 -37 -26
-45 -49 -41 -33 7 -55 -12 -70 -57 -18 -54 -48 -92 -72 -92 -21 0 -15 42 16
125 41 112 37 215 -9 215 -12 0 -21 10 -26 27 -14 58 -35 65 -80 27z"/>
<path d="M8190 8110 c-30 -48 -47 -50 -85 -10 -34 36 -49 37 -69 8 -28 -39
-19 -71 50 -177 l67 -102 25 43 c77 135 95 197 69 247 -18 37 -30 35 -57 -9z"/>
<path d="M10207 8070 c-54 -43 -47 -138 14 -205 21 -23 39 -44 39 -47 0 -2
-29 -2 -65 0 -64 4 -65 4 -65 -20 0 -37 36 -76 75 -84 l35 -6 -20 -25 c-27
-34 -25 -49 8 -83 57 -56 154 -49 212 16 26 30 31 43 28 77 -3 36 -6 42 -25
41 -20 0 -20 1 7 35 38 49 44 74 25 111 -8 16 -18 30 -21 30 -3 0 -24 -16 -47
-35 -64 -55 -72 -46 -32 32 22 42 24 53 14 87 -17 61 -58 96 -112 96 -29 0
-53 -7 -70 -20z"/>
<path d="M8430 8051 c-70 -14 -100 -44 -159 -156 -36 -70 -38 -92 -11 -145 33
-65 42 -63 100 34 19 31 38 56 43 56 19 0 -4 -67 -55 -168 l-53 -103 30 -57
c17 -31 37 -57 45 -57 8 0 33 29 56 65 64 100 80 117 95 103 10 -10 9 -25 -4
-73 -9 -33 -17 -70 -17 -83 0 -36 57 -143 93 -173 26 -22 37 -25 71 -20 83 14
141 67 173 157 17 50 11 87 -24 149 -47 83 -58 90 -135 90 -50 0 -68 3 -68 13
0 28 39 48 112 59 41 6 78 17 85 25 16 20 1 60 -38 102 l-30 34 -67 -9 c-93
-11 -166 -11 -172 1 -3 6 24 19 60 31 40 13 66 27 68 37 5 25 -27 77 -54 87
-28 11 -91 11 -144 1z"/>
<path d="M7743 7993 c-36 -5 -73 -44 -73 -75 0 -14 16 -26 60 -45 74 -32 64
-43 -42 -43 -102 0 -123 -11 -159 -82 -16 -31 -29 -61 -29 -66 0 -5 33 -12 73
-16 137 -12 174 -35 88 -56 -62 -15 -111 -65 -152 -157 l-29 -63 49 -73 c27
-40 61 -78 75 -85 15 -7 53 -12 86 -12 74 0 97 19 135 112 31 77 30 115 -5
195 -13 29 -21 56 -17 59 12 13 58 -27 104 -92 26 -35 54 -64 63 -64 21 0 60
69 60 107 0 19 -23 67 -65 134 -90 144 -88 168 5 74 30 -30 57 -55 61 -55 15
0 41 90 35 120 -7 38 -79 145 -110 165 -24 16 -154 27 -213 18z"/>
<path d="M3142 7878 c-16 -16 -15 -63 1 -76 6 -5 55 -13 107 -17 52 -3 110
-14 128 -22 39 -18 74 -67 130 -180 23 -44 47 -83 54 -86 18 -6 64 19 72 40 5
11 -20 74 -71 179 l-78 161 -44 7 c-78 11 -286 7 -299 -6z"/>
<path d="M3898 7789 c-101 -199 -125 -273 -95 -298 35 -28 70 10 160 174 l44
80 44 -1 c24 0 86 -4 137 -9 107 -9 112 -7 112 61 0 65 -10 68 -196 73 l-163
3 -43 -83z"/>
<path d="M10822 7854 c-32 -22 -46 -52 -52 -114 l-5 -55 -23 61 c-40 110 -71
88 -80 -58 l-5 -88 -16 33 c-34 68 -78 21 -65 -69 12 -86 67 -134 152 -134 42
0 68 20 58 45 -3 8 -14 15 -25 15 -11 0 -23 5 -26 10 -11 17 40 11 89 -11 44
-19 49 -19 71 -5 29 19 46 48 37 63 -4 5 -32 24 -62 41 l-55 32 46 0 c78 0
129 57 129 143 0 39 -5 49 -35 76 -41 35 -95 42 -133 15z"/>
<path d="M3132 7704 c-28 -19 -29 -65 -2 -89 14 -13 43 -20 94 -24 42 -4 81
-13 91 -21 10 -8 31 -42 46 -76 38 -83 51 -93 95 -69 45 24 44 42 -9 145 -50
96 -69 114 -152 135 -76 19 -135 19 -163 -1z"/>
<path d="M4092 7660 c-29 -4 -62 -16 -73 -26 -28 -25 -113 -199 -105 -213 4
-6 21 -18 38 -27 27 -14 31 -14 49 2 10 9 32 40 48 68 45 80 61 90 153 97 53
4 83 10 89 20 16 25 10 68 -10 79 -22 11 -109 11 -189 0z"/>
<path d="M9943 7614 c-3 -8 -3 -37 0 -65 3 -27 4 -49 2 -49 -2 0 -12 16 -21
36 -21 45 -67 74 -115 74 -97 0 -142 -128 -73 -209 36 -43 73 -48 140 -17 62
28 62 31 -8 -55 -21 -25 -38 -48 -38 -51 0 -12 71 -30 93 -24 13 3 42 22 65
41 45 39 52 39 25 -1 -15 -23 -15 -26 0 -42 15 -15 21 -15 59 -2 74 26 112
112 89 200 -25 94 -71 122 -88 53 l-10 -38 -7 45 c-5 25 -15 57 -22 72 -23 45
-78 64 -91 32z"/>
<path d="M10478 7595 c-44 -30 -81 -86 -76 -117 2 -19 9 -23 39 -23 23 0 45
-8 59 -20 18 -16 23 -17 31 -5 12 18 6 167 -7 180 -6 6 -23 1 -46 -15z"/>
<path d="M10204 7526 c-9 -24 5 -117 21 -142 8 -12 30 -25 49 -28 48 -9 53
-22 25 -72 l-23 -44 38 -39 39 -40 -38 -42 c-34 -38 -37 -45 -32 -84 8 -58 24
-95 40 -95 26 0 96 59 103 86 10 38 -7 60 -42 56 -28 -3 -28 -3 -10 17 26 29
84 54 111 47 25 -7 35 8 35 53 0 15 9 45 20 66 20 38 20 41 3 50 -35 20 -73
64 -73 85 0 29 -25 36 -57 15 -30 -20 -117 -25 -135 -7 -9 9 -3 15 26 27 20 9
39 22 42 30 10 25 -14 52 -53 59 -21 3 -48 9 -60 12 -16 4 -25 1 -29 -10z"/>
<path d="M3122 7521 c-8 -5 -12 -23 -10 -47 3 -36 6 -40 43 -52 24 -8 57 -31
82 -58 34 -38 46 -45 65 -39 56 17 59 34 22 108 -43 86 -58 97 -128 97 -34 0
-67 -4 -74 -9z"/>
<path d="M4143 7487 c-30 -16 -70 -71 -84 -115 -11 -33 -10 -37 15 -59 15 -13
31 -23 37 -23 5 0 26 15 47 34 23 21 53 37 77 41 56 10 67 22 59 59 -10 50
-41 76 -88 76 -23 -1 -51 -6 -63 -13z"/>
<path d="M10571 7386 c-10 -12 -9 -28 4 -85 10 -38 23 -72 31 -75 18 -7 70 31
112 81 l34 43 -47 20 c-68 29 -118 35 -134 16z"/>
<path d="M3063 7300 c-30 -12 -53 -60 -53 -110 0 -33 6 -48 29 -71 32 -31 62
-36 99 -15 30 16 62 65 62 94 0 31 -34 79 -70 97 -33 17 -36 17 -67 5z"/>
<path d="M5522 7295 c-55 -24 -79 -113 -47 -175 20 -38 62 -70 94 -70 20 0 23
-2 11 -10 -8 -5 -31 -10 -51 -10 -49 0 -59 -15 -45 -65 12 -40 12 -40 74 -48
61 -9 62 -9 41 -26 -45 -36 2 -81 84 -81 54 0 101 29 125 77 52 102 28 164
-40 105 -24 -20 -23 -14 7 50 29 62 32 119 8 144 -16 15 -18 15 -42 -12 -15
-16 -35 -42 -47 -57 l-20 -29 4 65 c5 75 -13 119 -58 142 -36 18 -55 18 -98 0z"/>
<path d="M6170 7298 c-13 -7 -35 -29 -48 -48 -21 -31 -23 -43 -18 -104 l5 -70
-20 35 c-48 79 -93 102 -105 54 -9 -36 4 -93 31 -142 23 -42 20 -58 -5 -28 -7
8 -24 15 -37 15 -25 0 -25 -2 -21 -50 6 -58 46 -126 84 -140 91 -35 218 29
142 72 -21 11 -18 13 41 23 63 10 64 11 78 50 12 36 12 41 -4 52 -9 7 -34 13
-55 13 -21 0 -38 5 -38 10 0 6 8 10 19 10 42 0 111 87 111 140 0 78 -95 142
-160 108z"/>
<path d="M10147 7250 c-56 -56 -54 -68 10 -89 55 -18 107 -11 111 15 2 11 -6
28 -18 39 -19 17 -19 20 -4 36 22 24 11 49 -22 49 -19 0 -42 -15 -77 -50z"/>
<path d="M10754 7271 c-77 -35 -108 -131 -72 -221 11 -28 22 -35 58 -44 40
-10 46 -15 56 -51 10 -38 13 -40 50 -40 l39 0 -3 73 c-2 56 1 73 10 70 7 -3
17 -18 22 -34 20 -68 57 -99 117 -99 34 0 46 6 70 33 55 62 30 176 -46 208
-47 19 -59 18 -93 -11 -30 -25 -52 -32 -52 -17 0 4 16 32 35 62 43 67 42 84
-7 88 -29 3 -43 -3 -73 -30 -32 -28 -37 -29 -31 -11 5 16 2 25 -13 32 -24 13
-18 14 -67 -8z"/>
<path d="M4247 7230 c-55 -43 -52 -141 5 -183 24 -18 30 -18 58 -7 44 18 80
69 80 113 0 26 -8 43 -31 66 -36 37 -75 40 -112 11z"/>
<path d="M10563 7183 c-7 -3 -13 -14 -13 -26 0 -36 -15 -50 -44 -43 -22 5 -26
3 -26 -17 0 -37 70 -90 130 -98 24 -4 25 -3 22 54 -3 79 -37 142 -69 130z"/>
<path d="M10043 7113 c-21 -8 -15 -27 17 -58 16 -16 28 -30 26 -32 -1 -2 -23
6 -47 17 -55 24 -90 25 -119 2 -29 -23 -19 -43 41 -88 27 -20 49 -37 49 -39 0
-1 -19 -1 -42 2 -52 5 -85 -11 -115 -56 -72 -107 54 -257 151 -180 40 31 59
76 53 121 -4 27 -2 38 6 35 17 -5 37 -48 37 -78 0 -62 58 -51 79 14 9 26 7 46
-9 101 -11 39 -18 72 -16 74 3 2 15 -15 28 -37 26 -46 40 -51 62 -19 54 77
-46 229 -148 227 -23 0 -47 -3 -53 -6z"/>
<path d="M10445 6966 c-45 -20 -97 -83 -93 -113 5 -41 32 -52 62 -24 41 38 50
19 11 -24 -20 -22 -45 -53 -56 -70 -21 -33 -25 -90 -8 -101 6 -3 38 12 70 34
63 44 70 45 39 5 -58 -74 -35 -185 46 -219 29 -12 39 -12 67 0 92 38 104 207
16 232 -20 6 -35 17 -37 28 -3 16 1 17 40 10 82 -14 83 -14 83 35 0 32 -5 46
-17 52 -10 5 -26 13 -35 18 -14 6 -18 21 -18 62 0 52 -2 55 -35 71 -41 21 -93
22 -135 4z"/>
<path d="M5860 6892 c-38 -63 -43 -105 -19 -161 13 -31 12 -35 -5 -45 -52 -31
-59 -43 -64 -99 -5 -61 11 -117 34 -117 8 0 33 -17 56 -37 30 -28 42 -34 46
-24 5 16 37 47 73 72 22 15 24 24 24 89 0 65 -2 74 -24 89 -32 21 -101 92
-101 103 0 4 18 5 40 2 31 -5 41 -3 46 9 8 21 -9 70 -44 129 l-28 47 -34 -57z"/>
<path d="M5363 6773 c-19 -7 -15 -62 7 -110 21 -47 14 -55 -16 -22 -66 73
-161 62 -203 -24 -18 -37 -20 -49 -11 -73 37 -97 142 -121 211 -48 30 32 43
30 25 -3 -45 -88 -35 -147 21 -128 24 9 56 48 98 119 8 14 10 10 10 -21 0 -34
3 -38 25 -38 17 0 33 12 55 43 25 37 30 53 30 102 0 49 -5 65 -30 102 -22 31
-38 43 -55 43 -22 0 -25 -4 -25 -38 0 -20 -1 -37 -2 -37 0 0 -15 24 -32 54
-40 71 -72 94 -108 79z"/>
<path d="M5660 6767 c-45 -23 -35 -109 19 -161 39 -37 55 -27 47 30 -5 43 -5
44 30 59 31 13 34 17 24 34 -20 37 -82 57 -120 38z"/>
<path d="M6362 6764 c-13 -9 -37 -40 -53 -70 -17 -30 -32 -54 -34 -54 -1 0 -2
17 -1 38 1 33 -2 37 -24 37 -32 0 -80 -67 -87 -123 -7 -54 19 -123 59 -157 40
-33 62 -19 54 34 l-6 36 17 -25 c74 -104 100 -127 127 -117 22 9 21 55 -4 111
-10 25 -17 46 -14 46 3 0 19 -14 37 -30 95 -90 207 -40 207 91 0 56 -50 109
-104 109 -42 0 -82 -18 -110 -49 -30 -33 -37 -25 -16 22 24 52 26 103 4 111
-23 9 -27 8 -52 -10z"/>
<path d="M6014 6745 c-18 -27 -12 -42 21 -55 20 -8 22 -14 18 -53 -3 -27 -1
-47 6 -51 32 -20 90 64 91 131 0 39 -21 53 -79 53 -32 0 -44 -5 -57 -25z"/>
<path d="M5691 6544 c-28 -20 -61 -85 -61 -121 0 -33 23 -50 78 -59 32 -5 44
-2 61 15 26 26 27 50 4 57 -43 13 -48 21 -45 67 4 52 -6 63 -37 41z"/>
<path d="M6052 6504 c3 -45 1 -50 -24 -62 -35 -16 -35 -35 -2 -61 33 -26 84
-27 115 -2 21 17 22 21 11 58 -17 57 -54 107 -81 111 -22 3 -23 1 -19 -44z"/>
<path d="M5831 6386 c-14 -36 -4 -81 32 -145 l30 -54 23 39 c34 56 57 121 50
140 -5 13 -14 15 -42 9 -29 -5 -41 -2 -60 16 l-23 22 -10 -27z"/>
<path d="M2555 6357 c-9 -15 -37 -91 -61 -169 -56 -181 -57 -229 -11 -312 18
-33 38 -61 45 -64 15 -5 100 81 112 114 16 42 11 107 -21 272 -36 186 -40 195
-64 159z"/>
<path d="M5608 6314 c-36 -19 -36 -49 -1 -68 27 -14 27 -14 -32 -21 -82 -9
-82 -9 -94 -51 -13 -49 -4 -60 62 -69 52 -8 52 -8 18 -15 -18 -5 -47 -22 -64
-38 -58 -58 -45 -172 23 -207 37 -19 63 -19 100 0 46 24 63 67 57 144 -4 52
-2 62 7 47 6 -11 28 -38 49 -60 36 -40 38 -40 52 -22 21 28 18 72 -10 141 -14
33 -25 61 -25 63 0 2 12 -6 26 -17 34 -27 42 -26 56 4 9 21 6 34 -20 87 -19
39 -42 70 -60 81 -36 21 -107 22 -144 1z"/>
<path d="M6023 6309 c-38 -24 -73 -92 -73 -142 0 -46 15 -55 51 -28 15 11 30
21 32 21 2 0 -9 -25 -25 -56 -31 -63 -36 -120 -13 -150 14 -18 16 -18 47 16
18 19 41 46 51 60 l18 25 -7 -24 c-20 -75 4 -154 56 -185 49 -28 88 -21 132
24 45 48 47 72 14 138 -25 49 -67 81 -108 83 -12 1 2 6 32 11 74 13 80 20 68
68 -11 43 -15 45 -103 55 l-59 7 32 14 c39 16 41 36 6 63 -36 28 -108 28 -151
0z"/>
<path d="M332 6211 c-22 -16 -43 -35 -47 -41 -4 -6 7 -31 24 -55 17 -24 31
-46 31 -49 0 -3 -14 -6 -30 -6 -39 0 -48 -22 -24 -56 45 -63 54 -81 54 -106 0
-22 -5 -28 -21 -28 -15 0 -26 14 -43 53 -13 28 -33 60 -44 70 -19 18 -20 18
-35 -3 -14 -20 -15 -19 -36 29 -11 27 -25 52 -30 55 -4 3 -21 -8 -36 -24 -16
-17 -37 -30 -47 -30 -27 0 -41 -38 -42 -119 l-1 -76 53 3 54 4 -7 -32 c-10
-44 3 -49 91 -43 63 5 74 3 80 -11 10 -27 -6 -35 -84 -45 -88 -11 -111 -25
-85 -53 16 -18 15 -18 -43 -16 l-59 3 0 -70 c1 -103 9 -125 45 -125 23 0 33
-6 42 -25 6 -14 14 -25 18 -25 12 0 36 33 50 68 14 35 25 40 34 17 14 -37 75
-5 76 40 0 28 37 85 55 85 32 0 14 -73 -39 -152 -17 -27 -17 -27 13 -43 38
-19 38 -27 5 -71 -14 -18 -24 -40 -21 -48 4 -9 31 -32 61 -52 65 -43 90 -41
121 9 11 17 30 33 43 35 25 4 28 19 7 46 -19 26 -19 48 2 83 16 28 15 30 -15
72 -21 29 -32 56 -32 78 0 69 59 47 79 -30 5 -23 17 -51 26 -62 15 -20 15 -20
34 3 25 29 27 28 41 -12 6 -18 19 -41 30 -51 25 -23 54 -12 47 16 -5 19 -3 21
25 15 50 -10 58 5 58 106 0 62 -4 90 -13 93 -7 3 -34 1 -60 -4 -51 -9 -55 -7
-31 16 23 23 0 41 -61 49 -80 9 -95 13 -95 29 0 23 34 35 101 35 l62 0 -6 36
-6 35 52 -3 52 -3 3 52 c2 29 -2 70 -7 91 -9 32 -17 41 -43 48 -24 7 -33 16
-34 32 -2 31 -9 36 -32 23 -11 -6 -28 -33 -37 -61 -18 -55 -24 -59 -43 -30
-18 29 -24 26 -54 -28 -15 -26 -41 -63 -58 -82 l-31 -35 4 53 c3 41 11 62 36
93 38 46 37 73 -2 77 -34 4 -34 17 3 66 17 22 30 43 30 48 0 5 -21 22 -47 38
-62 39 -107 40 -161 1z"/>
<path d="M1986 6123 c-3 -21 -6 -62 -6 -91 0 -60 19 -85 89 -117 49 -21 65
-13 82 45 22 73 -2 125 -79 174 -59 37 -78 35 -86 -11z"/>
<path d="M3004 6055 c-59 -29 -74 -55 -74 -126 0 -66 13 -89 51 -89 34 0 98
30 119 55 16 19 16 86 0 146 -13 47 -26 49 -96 14z"/>
<path d="M2273 6018 c-11 -13 -36 -53 -57 -90 -20 -37 -45 -72 -54 -77 -9 -4
-64 -11 -121 -15 -57 -3 -110 -11 -118 -17 -17 -15 -17 -93 0 -107 7 -6 62
-13 121 -14 l108 -3 42 -105 c58 -142 89 -201 129 -244 37 -38 73 -47 84 -19
11 28 -27 151 -87 285 l-58 127 59 116 c33 63 59 122 59 130 0 15 -55 55 -76
55 -6 0 -20 -10 -31 -22z"/>
<path d="M2748 5984 c-38 -20 -36 -42 13 -174 l40 -110 -57 -93 c-31 -50 -68
-106 -81 -124 -25 -32 -64 -186 -51 -199 15 -14 56 7 102 53 45 46 118 156
166 253 12 25 23 46 25 47 1 2 49 -4 108 -12 58 -8 113 -12 121 -9 12 4 16 20
16 55 0 61 -15 72 -129 93 -46 8 -93 22 -105 30 -12 7 -34 46 -50 84 -29 75
-60 122 -79 122 -7 -1 -24 -8 -39 -16z"/>
<path d="M10366 5855 c-37 -86 -108 -333 -110 -375 -1 -36 6 -56 37 -103 57
-88 77 -88 136 -1 32 48 33 51 27 124 -7 95 -43 309 -60 358 l-13 37 -17 -40z"/>
<path d="M2382 5834 c-30 -21 -28 -47 12 -129 45 -94 54 -125 65 -226 10 -91
26 -139 47 -139 24 0 55 60 71 137 17 84 40 137 97 222 20 29 36 61 36 70 0 9
-13 32 -28 50 -34 40 -46 37 -111 -34 -24 -26 -44 -45 -45 -43 -1 2 -15 21
-30 43 -49 69 -72 79 -114 49z"/>
<path d="M1517 5769 c50 -78 227 -291 255 -305 21 -11 45 -14 73 -11 70 10 95
24 95 51 0 39 -38 130 -63 154 -34 32 -312 142 -359 142 -20 0 -20 0 -1 -31z"/>
<path d="M3363 5625 c-170 -40 -196 -53 -224 -107 -64 -126 -57 -150 45 -156
59 -4 71 -1 107 23 91 60 267 245 253 266 -8 13 -26 11 -181 -26z"/>
<path d="M9812 5638 c-16 -20 -25 -120 -13 -151 11 -29 93 -87 122 -87 30 0
49 40 49 101 0 67 -22 102 -84 130 -49 22 -60 23 -74 7z"/>
<path d="M2015 5630 c-49 -19 -51 -32 -29 -167 l7 -43 -57 0 c-75 0 -96 -12
-96 -53 0 -58 15 -68 125 -77 86 -7 109 -13 170 -45 83 -44 117 -55 145 -48
36 10 23 47 -51 139 -84 105 -111 150 -134 224 -15 49 -38 81 -54 79 -3 0 -15
-4 -26 -9z"/>
<path d="M10835 5558 c-62 -32 -82 -55 -90 -105 -8 -57 3 -123 22 -130 18 -7
106 33 139 64 27 25 31 61 13 143 -12 57 -22 61 -84 28z"/>
<path d="M2984 5562 c-7 -4 -31 -47 -53 -97 -47 -101 -63 -121 -107 -140 -65
-27 -132 -121 -106 -147 17 -17 128 -5 152 17 23 21 36 22 194 15 78 -3 90 -1
102 15 34 46 11 87 -61 113 -58 21 -64 36 -45 122 l12 54 -31 28 c-33 30 -39
32 -57 20z"/>
<path d="M7951 5544 c-12 -15 -21 -31 -21 -36 0 -5 -12 -7 -27 -6 -26 3 -28 1
-27 -33 1 -20 11 -50 23 -67 26 -37 26 -45 2 -37 -34 10 -34 -27 -1 -96 33
-71 38 -104 14 -113 -16 -6 -24 5 -67 94 -20 42 -25 45 -64 48 -38 3 -44 6
-51 34 -4 17 -16 36 -26 42 -14 9 -21 6 -40 -17 -12 -15 -37 -35 -56 -45 -49
-25 -58 -44 -34 -78 10 -16 19 -44 19 -63 0 -31 3 -35 40 -45 32 -9 41 -18 48
-43 l9 -31 72 5 c56 4 75 1 91 -11 l20 -16 -20 -16 c-16 -12 -35 -15 -88 -10
l-68 5 -15 -34 c-10 -24 -22 -36 -42 -41 -70 -15 -89 -35 -55 -59 16 -12 16
-14 0 -38 -20 -31 -22 -72 -4 -84 6 -4 30 -8 52 -8 33 0 40 -4 45 -25 3 -15
14 -26 27 -28 16 -2 22 4 26 28 5 21 15 33 34 40 47 17 57 25 87 76 15 27 33
52 40 56 45 29 48 -26 5 -93 -37 -58 -37 -104 -1 -103 27 1 27 1 -3 -44 -37
-54 -29 -102 15 -102 9 0 27 -11 40 -25 31 -33 41 -32 96 10 25 19 52 35 60
35 18 0 18 7 -1 59 -13 37 -13 45 0 65 13 20 12 28 -15 85 -33 70 -39 121 -15
121 10 0 30 -29 52 -75 19 -41 39 -75 43 -75 4 0 15 11 24 25 23 35 31 32 45
-17 12 -41 36 -78 51 -78 4 0 12 11 18 24 6 14 23 27 41 31 16 3 35 13 42 21
20 25 15 75 -10 96 -16 12 -19 18 -8 18 21 0 37 23 28 39 -5 7 -24 16 -42 20
-26 5 -38 15 -51 44 l-18 36 -65 -6 c-51 -5 -69 -2 -91 12 -23 15 -25 19 -11
32 16 16 82 20 135 9 30 -7 33 -5 47 27 11 28 22 37 52 44 28 6 39 14 41 31 3
17 -2 22 -18 22 -21 0 -21 1 5 32 20 23 25 38 20 57 -9 36 -24 51 -49 51 -28
0 -42 10 -50 38 -4 12 -11 22 -15 22 -13 0 -37 -32 -51 -67 -14 -37 -18 -39
-46 -18 -10 8 -22 15 -26 15 -4 0 -23 -30 -41 -67 -38 -78 -67 -95 -67 -40 0
21 12 51 32 82 31 47 31 48 15 77 -21 37 -21 49 0 86 15 25 15 32 4 46 -8 9
-19 15 -25 14 -7 -2 -30 12 -53 30 -22 17 -46 32 -51 32 -6 0 -20 -12 -31 -26z"/>
<path d="M10107 5527 c-8 -7 -40 -51 -71 -99 -30 -48 -65 -92 -76 -98 -16 -8
-46 -8 -116 1 -110 14 -119 10 -118 -52 2 -66 53 -98 157 -99 21 0 48 -5 59
-11 12 -6 44 -61 76 -127 74 -157 141 -252 179 -252 34 0 29 167 -6 204 -12
13 -44 72 -70 131 l-49 109 54 101 c30 56 54 112 54 124 0 50 -44 91 -73 68z"/>
<path d="M10559 5477 c-44 -30 -42 -48 16 -174 l45 -96 -69 -116 c-83 -139
-118 -214 -123 -261 -3 -31 0 -35 24 -38 39 -5 87 43 172 173 97 147 108 155
207 155 103 0 126 10 135 55 4 25 1 42 -10 60 -15 23 -22 25 -99 25 -45 0 -93
6 -107 13 -17 8 -40 43 -70 103 -45 91 -66 124 -80 124 -4 0 -22 -10 -41 -23z"/>
<path d="M1661 5389 c-30 -28 -25 -51 35 -179 l46 -98 -52 -77 c-67 -100 -85
-142 -69 -161 38 -45 69 -37 131 33 18 20 50 55 70 77 l36 41 159 1 c130 0
165 4 196 18 41 20 47 44 18 70 -32 29 -109 46 -242 53 l-128 6 -64 116 c-70
128 -90 143 -136 100z"/>
<path d="M10190 5320 c-11 -11 -20 -25 -20 -32 0 -6 20 -52 45 -102 38 -75 47
-106 55 -176 12 -111 36 -190 59 -190 18 0 54 86 63 153 12 91 32 136 97 216
28 35 51 69 51 77 0 22 -67 66 -89 59 -10 -3 -38 -26 -62 -52 l-42 -46 -21 29
c-59 83 -99 101 -136 64z"/>
<path d="M3270 5278 c-12 -13 -45 -63 -73 -111 -43 -73 -55 -87 -72 -82 -11 2
-83 8 -160 11 -150 7 -177 2 -218 -44 -18 -20 -18 -21 5 -36 43 -28 106 -45
210 -56 165 -17 173 -21 209 -93 42 -83 87 -147 103 -147 21 0 66 40 66 58 0
9 -21 64 -45 121 l-45 104 60 102 c33 56 60 110 60 121 0 21 -48 74 -68 74 -6
0 -21 -10 -32 -22z"/>
<path d="M9330 5283 c0 -13 91 -144 156 -225 71 -87 92 -98 198 -98 l84 0 -18
60 c-41 134 -53 145 -253 220 -119 45 -167 57 -167 43z"/>
<path d="M2430 5233 c-47 -24 -100 -113 -100 -168 0 -47 47 -136 85 -161 38
-25 137 -15 171 17 62 58 78 134 45 212 -40 92 -128 136 -201 100z"/>
<path d="M1463 5199 c-35 -22 -65 -44 -68 -48 -8 -14 112 -121 135 -121 45 0
160 86 146 109 -10 16 -127 101 -140 101 -6 0 -39 -18 -73 -41z"/>
<path d="M11235 5129 c-60 -11 -140 -28 -177 -39 -75 -23 -98 -45 -142 -140
-21 -45 -23 -57 -12 -68 18 -18 134 -37 171 -28 31 7 259 228 284 274 14 27
21 27 -124 1z"/>
<path d="M4760 5089 c-19 -16 -45 -32 -57 -35 -27 -7 -27 -9 -8 -63 13 -37 13
-45 0 -65 -13 -20 -12 -28 15 -85 33 -70 39 -121 15 -121 -10 0 -30 29 -52 75
-19 41 -39 75 -44 75 -5 0 -16 -11 -25 -25 -22 -34 -29 -32 -43 18 -12 40 -36
77 -51 77 -4 0 -12 -11 -18 -24 -6 -14 -23 -27 -41 -31 -16 -3 -35 -13 -42
-21 -20 -25 -15 -75 10 -96 16 -12 19 -18 8 -18 -21 0 -37 -23 -28 -39 5 -7
24 -16 42 -20 26 -5 38 -15 51 -44 l18 -36 65 6 c51 5 69 2 91 -12 23 -15 25
-19 11 -32 -16 -16 -82 -20 -135 -9 -30 7 -33 5 -47 -27 -11 -27 -22 -37 -47
-42 -18 -4 -38 -12 -45 -17 -17 -13 -5 -38 19 -38 18 0 18 -2 -7 -32 -20 -23
-25 -38 -20 -57 9 -36 24 -51 49 -51 28 0 42 -10 50 -37 4 -13 11 -23 15 -23
13 0 37 32 51 68 14 36 18 38 46 17 10 -8 22 -15 26 -15 4 0 23 30 41 67 38
78 67 95 67 40 0 -21 -12 -51 -32 -82 -31 -47 -31 -48 -15 -77 21 -37 21 -49
0 -86 -14 -25 -15 -33 -4 -46 7 -9 17 -13 22 -10 5 3 28 -11 51 -31 23 -19 49
-34 58 -33 8 2 24 18 35 35 15 24 27 32 45 30 23 -2 25 1 24 34 -1 20 -11 50
-23 67 -26 37 -26 45 -2 37 34 -11 35 28 1 94 -33 67 -38 106 -14 115 16 6 24
-5 67 -94 20 -41 25 -45 63 -48 37 -3 42 -7 50 -34 5 -17 17 -36 27 -42 15 -9
22 -6 41 17 12 15 37 35 56 45 49 25 58 44 34 78 -10 16 -19 44 -19 63 0 31
-3 35 -40 45 -32 9 -41 18 -48 43 l-9 31 -72 -5 c-56 -4 -75 -1 -91 11 l-20
16 20 16 c16 12 35 15 88 10 l68 -5 15 34 c10 24 22 36 42 41 70 15 89 35 55
59 -16 12 -16 14 0 38 20 31 22 72 5 84 -7 4 -31 8 -53 8 -33 0 -40 4 -45 25
-3 15 -14 26 -27 28 -16 2 -22 -4 -26 -28 -5 -21 -15 -33 -34 -40 -47 -17 -57
-25 -87 -76 -15 -27 -33 -52 -40 -56 -45 -29 -48 26 -5 93 37 58 37 104 2 103
-28 -1 -28 -1 2 44 37 54 29 102 -15 102 -9 0 -27 11 -40 25 -30 32 -47 31
-90 -6z"/>
<path d="M9804 5112 c-21 -14 -24 -45 -9 -103 9 -33 13 -63 11 -68 -3 -5 -29
-11 -57 -15 -67 -9 -104 -43 -95 -89 9 -48 28 -56 126 -55 82 2 91 0 158 -35
70 -37 153 -50 166 -28 13 20 -30 89 -94 151 -60 58 -70 73 -89 135 -28 91
-45 115 -79 115 -15 0 -32 -4 -38 -8z"/>
<path d="M3360 5049 l-63 -40 59 -60 c33 -34 67 -59 79 -59 11 0 48 18 83 40
75 47 78 64 22 120 -55 55 -94 55 -180 -1z"/>
<path d="M10793 5048 c-6 -7 -28 -47 -49 -88 -39 -75 -87 -130 -158 -184 -40
-30 -71 -88 -61 -114 8 -21 85 -10 155 22 62 29 106 32 211 14 66 -12 72 -11
85 7 20 27 17 72 -6 95 -11 11 -40 25 -66 31 -25 7 -48 18 -51 26 -3 8 5 46
18 85 l24 70 -28 24 c-31 26 -59 31 -74 12z"/>
<path d="M2180 4961 c-14 -4 -44 -18 -67 -29 -48 -25 -100 -28 -204 -10 -66
12 -72 11 -85 -7 -8 -10 -14 -34 -14 -52 0 -27 6 -37 31 -52 17 -11 47 -22 66
-26 19 -3 37 -13 40 -21 3 -9 -5 -47 -18 -86 l-24 -70 29 -24 c46 -41 65 -30
116 66 44 82 78 123 174 205 37 32 47 47 49 75 2 33 0 35 -33 37 -19 1 -46 -2
-60 -6z"/>
<path d="M2696 4901 c-13 -20 30 -89 94 -151 60 -58 70 -73 89 -135 28 -91 45
-115 79 -115 55 0 68 30 47 111 -9 33 -13 63 -11 68 3 5 29 11 57 15 67 9 104
43 95 89 -9 48 -27 56 -124 54 -81 -1 -92 2 -161 36 -73 36 -152 50 -165 28z"/>
<path d="M9486 4879 c-14 -11 -26 -28 -26 -37 0 -9 21 -64 45 -121 l45 -104
-60 -102 c-33 -56 -60 -110 -60 -121 0 -21 48 -74 68 -74 19 0 50 40 105 133
43 73 55 87 72 82 11 -2 83 -8 160 -11 150 -7 177 -2 218 44 18 19 18 20 -4
36 -40 28 -110 45 -242 60 -70 8 -132 18 -137 21 -6 4 -24 34 -42 68 -41 83
-86 147 -102 147 -7 0 -25 -9 -40 -21z"/>
<path d="M2283 4797 c-21 -19 -72 -87 -113 -150 -41 -64 -87 -123 -101 -131
-18 -11 -52 -16 -102 -16 -42 0 -87 -4 -100 -9 -32 -12 -44 -59 -25 -98 13
-27 16 -28 109 -33 64 -3 102 -10 114 -20 10 -8 37 -56 60 -105 50 -106 64
-122 97 -104 68 35 68 43 1 188 l-43 94 64 107 c79 129 124 223 128 270 3 31
0 35 -24 38 -19 2 -37 -7 -65 -31z"/>
<path d="M2584 4795 c-11 -63 0 -143 25 -169 12 -13 44 -72 70 -131 l49 -109
-54 -101 c-30 -56 -54 -114 -54 -129 0 -32 42 -78 64 -70 8 3 42 48 75 99 33
52 70 99 81 105 16 8 46 8 116 -1 73 -9 98 -9 107 0 17 17 12 89 -7 110 -20
22 -88 41 -146 41 -48 0 -82 28 -107 88 -66 160 -159 302 -198 302 -8 0 -17
-15 -21 -35z"/>
<path d="M2441 4760 c-13 -23 -27 -73 -33 -113 -12 -91 -32 -136 -97 -216 -28
-35 -51 -69 -51 -76 0 -17 57 -65 77 -65 9 0 38 23 66 50 28 28 53 47 57 43 4
-4 21 -27 39 -51 36 -46 68 -60 99 -43 38 20 36 47 -13 144 -38 76 -47 107
-55 177 -12 111 -36 190 -59 190 -4 0 -18 -18 -30 -40z"/>
<path d="M1684 4742 c-45 -33 -228 -222 -244 -252 -10 -19 -9 -20 32 -14 104
15 292 56 318 69 34 17 61 54 95 126 29 63 24 73 -46 88 -80 17 -112 14 -155
-17z"/>
<path d="M11063 4728 c-22 -24 -58 -63 -81 -88 l-41 -45 -154 0 c-129 0 -160
-3 -195 -19 -46 -21 -53 -43 -23 -70 32 -29 111 -46 243 -53 l127 -6 64 -116
c70 -128 90 -143 136 -100 30 28 25 51 -35 179 l-46 98 50 73 c28 41 58 91 68
111 17 36 17 38 -1 58 -30 33 -67 26 -112 -22z"/>
<path d="M9283 4690 c-76 -47 -79 -64 -23 -120 55 -55 94 -55 180 1 l63 40
-59 60 c-33 34 -67 59 -79 59 -11 0 -48 -18 -82 -40z"/>
<path d="M10250 4723 c-48 -18 -100 -100 -100 -157 0 -48 41 -138 72 -158 14
-9 44 -21 67 -28 36 -9 48 -8 79 7 49 24 102 111 102 168 0 45 -46 134 -82
159 -22 16 -105 21 -138 9z"/>
<path d="M3046 4608 c23 -79 52 -134 80 -153 27 -18 224 -96 292 -116 23 -7
45 -9 49 -6 15 16 -181 278 -231 308 -24 15 -50 19 -118 19 l-87 0 15 -52z"/>
<path d="M11200 4561 c-25 -15 -54 -38 -65 -51 l-20 -22 45 -38 c25 -22 59
-47 76 -56 l32 -17 71 44 c39 24 71 46 71 50 0 3 -27 31 -59 62 -69 66 -86 69
-151 28z"/>
<path d="M9950 4435 c-56 -32 -71 -35 -168 -27 -53 5 -107 6 -120 4 -29 -6
-47 -42 -38 -77 6 -24 18 -32 99 -64 31 -12 35 -41 15 -118 -11 -45 -11 -47
21 -75 17 -15 38 -28 46 -28 10 0 33 37 61 97 50 109 65 129 110 148 61 25
128 114 109 144 -9 16 -106 13 -135 -4z"/>
<path d="M10518 4423 c-35 -9 -19 -50 53 -140 84 -103 110 -148 134 -223 10
-30 22 -61 28 -67 14 -19 41 -16 72 9 29 23 29 18 8 161 l-5 37 57 0 c74 0 95
12 95 53 0 58 -15 68 -125 77 -87 7 -108 13 -175 48 -79 41 -114 52 -142 45z"/>
<path d="M12360 4408 c-5 -7 -19 -25 -31 -40 -11 -16 -29 -28 -40 -28 -23 0
-24 -17 -4 -44 19 -26 19 -48 -2 -83 -16 -28 -15 -30 15 -72 21 -29 32 -56 32
-78 0 -69 -59 -47 -79 30 -5 23 -17 51 -26 62 -15 20 -15 20 -34 -2 -25 -30
-27 -29 -41 11 -6 18 -19 41 -30 51 -25 23 -54 12 -47 -16 5 -19 3 -21 -25
-15 -50 10 -58 -5 -58 -106 0 -62 4 -90 13 -93 7 -3 34 -1 60 4 51 9 55 7 31
-16 -23 -23 0 -41 61 -49 80 -9 95 -13 95 -29 0 -23 -34 -35 -101 -35 l-62 0
6 -36 6 -35 -52 3 -52 3 -3 -52 c-2 -29 2 -70 7 -91 9 -32 17 -41 43 -48 24
-7 33 -16 34 -32 2 -31 9 -36 32 -23 11 6 28 33 37 61 18 55 24 59 43 30 18
-29 24 -26 54 28 15 26 41 63 58 82 l31 35 -4 -53 c-3 -41 -11 -62 -36 -93
-38 -46 -37 -73 2 -77 34 -4 34 -17 -3 -66 -17 -22 -30 -43 -30 -48 0 -19 95
-68 130 -68 35 0 107 40 125 70 4 6 -7 31 -24 55 -17 24 -31 46 -31 49 0 3 14
6 30 6 39 0 48 22 24 56 -45 63 -54 81 -54 107 0 21 5 27 21 27 15 0 26 -14
43 -52 13 -29 33 -61 44 -71 19 -18 20 -18 35 3 14 20 15 19 36 -29 11 -27 25
-52 30 -55 4 -3 21 8 36 24 16 17 37 30 47 30 27 0 41 38 42 119 l1 76 -53 -3
-54 -4 7 32 c10 44 -3 49 -91 43 -63 -5 -74 -3 -80 11 -10 27 6 35 84 45 88
11 111 25 85 53 -16 18 -15 18 43 16 l59 -3 0 70 c-1 103 -9 125 -45 125 -23
0 -33 6 -42 25 -6 14 -14 25 -18 25 -12 0 -36 -33 -50 -67 -14 -36 -25 -41
-34 -18 -14 37 -75 5 -76 -40 0 -28 -37 -85 -55 -85 -32 0 -14 73 39 152 17
27 17 27 -13 43 -38 19 -38 27 -5 71 14 18 24 40 21 48 -8 20 -107 86 -129 86
-9 0 -22 -6 -28 -12z"/>
<path d="M10145 4330 c-42 -17 -117 -109 -179 -219 -36 -62 -67 -118 -68 -123
-2 -6 -43 -4 -110 6 -59 9 -114 13 -122 10 -12 -4 -16 -20 -16 -55 0 -61 15
-72 129 -93 46 -8 93 -22 105 -29 11 -8 36 -50 54 -94 18 -44 41 -88 52 -98
19 -17 22 -18 55 -2 46 22 45 39 -5 176 l-40 110 56 92 c31 51 67 107 80 124
22 30 54 135 54 183 0 23 -12 26 -45 12z"/>
<path d="M2396 4279 c-50 -60 -59 -87 -53 -164 9 -96 45 -307 62 -353 l13 -37
15 35 c20 47 103 315 112 361 7 39 -14 93 -62 157 -30 40 -54 41 -87 1z"/>
<path d="M10393 4293 c-11 -28 27 -151 87 -285 l58 -127 -61 -119 c-36 -72
-58 -126 -54 -136 4 -9 22 -24 41 -33 34 -16 37 -16 56 2 11 10 38 51 60 91
22 40 48 77 58 82 9 5 64 12 121 15 56 4 109 12 117 18 18 15 18 93 1 107 -7
6 -62 13 -121 14 l-108 3 -42 105 c-58 142 -89 201 -129 244 -37 38 -73 47
-84 19z"/>
<path d="M1963 4276 c-94 -44 -106 -72 -82 -186 7 -32 16 -50 25 -50 22 0 106
45 126 67 34 38 32 184 -3 191 -8 1 -37 -9 -66 -22z"/>
<path d="M10260 4250 c-11 -16 -26 -55 -32 -87 -16 -91 -37 -142 -89 -223 -27
-41 -49 -81 -49 -90 0 -9 13 -31 28 -49 34 -40 46 -37 111 34 24 26 44 45 45
43 16 -26 63 -86 74 -95 35 -29 92 -2 92 43 0 10 -15 51 -34 89 -45 94 -54
125 -65 226 -15 136 -39 168 -81 109z"/>
<path d="M9501 4230 c-63 -46 -213 -193 -234 -229 -15 -26 -16 -32 -4 -36 18
-8 281 51 334 75 43 19 68 55 98 141 20 56 5 70 -81 76 -65 5 -71 3 -113 -27z"/>
<path d="M2846 4198 c-10 -14 -16 -44 -16 -79 0 -68 25 -104 90 -134 57 -26
73 -14 83 61 11 77 -1 107 -60 144 -56 36 -77 37 -97 8z"/>
<path d="M10905 4156 c-48 -14 -54 -34 -30 -107 26 -77 54 -102 158 -144 124
-50 226 -85 250 -85 19 0 19 1 -1 31 -45 72 -219 282 -248 300 -35 21 -71 23
-129 5z"/>
<path d="M10214 3764 c-53 -55 -64 -79 -64 -140 0 -47 56 -349 70 -373 13 -25
39 30 86 181 56 181 57 229 11 312 -18 33 -38 61 -45 64 -6 2 -32 -18 -58 -44z"/>
<path d="M6508 3750 c-45 -48 -47 -72 -14 -138 26 -50 52 -71 101 -82 26 -6
22 -7 -28 -14 -64 -8 -73 -18 -63 -71 7 -37 13 -40 101 -50 l59 -7 -32 -14
c-39 -16 -41 -36 -6 -63 35 -27 107 -28 150 -2 38 23 74 94 74 144 0 46 -15
55 -51 28 -15 -11 -30 -21 -32 -21 -2 0 9 25 25 56 32 65 38 134 12 155 -14
11 -20 9 -48 -21 -17 -19 -39 -46 -48 -60 l-18 -25 7 30 c18 79 -1 144 -52
175 -53 32 -92 27 -137 -20z"/>
<path d="M7174 3771 c-43 -26 -58 -68 -51 -144 4 -50 3 -58 -7 -43 -6 11 -27
38 -47 59 -33 37 -36 38 -52 22 -24 -23 -21 -65 8 -137 14 -34 25 -63 25 -65
0 -3 -12 5 -26 16 -34 27 -42 26 -56 -4 -9 -21 -6 -34 20 -87 35 -72 70 -98
132 -98 85 0 131 53 73 84 -27 14 -27 14 32 21 82 9 82 9 94 51 13 49 4 60
-62 69 -52 8 -52 8 -18 15 18 5 47 22 64 38 58 58 45 172 -23 207 -39 20 -68
19 -106 -4z"/>
<path d="M9755 3761 c-22 -10 -47 -26 -55 -36 -28 -34 -5 -185 28 -185 33 0
119 50 130 76 15 31 16 119 2 145 -13 24 -52 24 -105 0z"/>
<path d="M10663 3693 c-25 -38 -24 -120 2 -154 24 -32 98 -79 124 -79 21 0 31
41 31 128 0 59 -14 78 -79 112 -52 26 -57 25 -78 -7z"/>
<path d="M6865 3356 c-46 -92 -44 -112 10 -109 28 2 45 -3 62 -19 l22 -21 11
28 c6 16 8 42 4 59 -6 29 -61 136 -69 136 -2 0 -20 -33 -40 -74z"/>
<path d="M6377 3253 c-13 -12 -7 -61 13 -107 10 -25 17 -46 14 -46 -3 0 -19
14 -37 30 -98 92 -219 33 -204 -99 7 -58 50 -101 103 -101 42 0 68 12 112 53
37 36 39 34 12 -24 -26 -59 -26 -106 0 -114 31 -10 66 18 101 80 17 30 32 55
34 55 1 0 2 -17 1 -37 -1 -34 2 -38 24 -38 32 0 80 67 87 123 7 54 -19 123
-59 157 -39 33 -63 19 -53 -32 3 -18 4 -33 2 -33 -2 0 -17 19 -32 43 -53 81
-95 113 -118 90z"/>
<path d="M6659 3241 c-21 -17 -22 -21 -11 -58 17 -57 54 -107 81 -111 22 -3
23 -1 19 44 -3 45 -1 50 25 62 34 16 34 35 1 61 -33 26 -84 27 -115 2z"/>
<path d="M7030 3240 c-25 -25 -23 -53 5 -58 36 -7 45 -22 38 -67 -3 -23 -1
-45 4 -48 28 -17 93 75 93 130 0 33 -23 50 -78 59 -33 5 -44 2 -62 -16z"/>
<path d="M7382 3244 c-13 -9 -37 -40 -53 -70 -17 -30 -32 -54 -32 -54 -1 0 -2
17 -2 37 0 34 -3 38 -25 38 -17 0 -33 -12 -55 -43 -25 -37 -30 -53 -30 -102 0
-49 5 -65 30 -102 22 -31 38 -43 55 -43 22 0 25 4 25 38 0 20 1 37 2 37 0 0
15 -24 32 -54 44 -78 83 -102 114 -71 17 16 9 63 -19 118 -17 32 -5 36 22 6
66 -73 161 -62 203 24 18 37 20 49 11 73 -37 97 -142 121 -211 48 -35 -38 -39
-29 -12 36 18 47 21 64 13 80 -13 24 -38 26 -68 4z"/>
<path d="M6885 3200 c-4 -12 -24 -32 -45 -45 -30 -19 -41 -33 -46 -60 -10 -58
2 -118 27 -135 29 -19 99 -91 99 -101 0 -4 -19 -7 -42 -6 -57 3 -60 -17 -12
-110 l37 -74 33 53 c43 68 50 106 30 146 -23 44 -20 59 14 77 36 19 50 50 50
110 0 55 -15 95 -35 95 -8 0 -32 16 -54 35 -45 41 -48 42 -56 15z"/>
<path d="M2215 3166 c-90 -39 -100 -207 -14 -232 20 -6 35 -17 37 -28 3 -16
-1 -17 -40 -10 -82 14 -83 14 -83 -35 0 -32 5 -46 18 -52 9 -5 25 -13 35 -18
13 -6 17 -21 17 -62 0 -52 2 -55 35 -71 68 -35 142 -17 198 47 36 40 40 80 10
99 -13 8 -22 5 -42 -13 -46 -43 -49 -16 -4 34 25 28 50 60 56 72 15 28 15 80
1 89 -6 3 -38 -12 -70 -34 -32 -23 -59 -39 -59 -37 0 2 11 21 25 41 57 84 22
192 -70 217 -11 4 -34 0 -50 -7z"/>
<path d="M6707 3029 c-25 -14 -57 -86 -57 -126 0 -39 21 -53 79 -53 32 0 44 5
57 25 18 27 12 43 -20 54 -17 7 -21 16 -21 56 0 51 -9 61 -38 44z"/>
<path d="M7074 3025 c-4 -8 -3 -31 0 -50 6 -32 5 -35 -30 -50 -35 -14 -36 -16
-22 -37 9 -13 32 -29 53 -36 95 -32 130 66 53 153 -33 38 -46 43 -54 20z"/>
<path d="M2796 2939 c-40 -31 -59 -76 -53 -121 4 -27 2 -38 -6 -35 -17 5 -37
48 -37 78 0 62 -58 51 -79 -14 -9 -26 -7 -46 9 -101 11 -39 18 -72 16 -74 -3
-2 -15 15 -28 37 -26 46 -40 51 -62 19 -53 -75 45 -228 145 -228 76 0 87 19
39 65 -16 16 -28 30 -26 32 1 2 23 -6 47 -17 55 -24 90 -25 119 -2 29 23 19
43 -41 88 -27 20 -49 37 -49 39 0 1 19 1 43 -2 51 -5 84 11 114 56 42 63 20
151 -46 186 -41 21 -73 19 -105 -6z"/>
<path d="M6628 2794 c-34 -18 -36 -49 -5 -66 20 -11 17 -13 -43 -23 l-64 -10
-12 -42 c-12 -39 -11 -44 6 -53 10 -5 35 -10 54 -10 20 0 36 -4 36 -10 0 -5
-8 -10 -19 -10 -43 0 -111 -87 -111 -143 0 -33 40 -89 74 -105 40 -20 90 -7
120 29 33 39 40 68 32 137 l-6 57 21 -35 c49 -80 93 -103 105 -55 9 36 -4 93
-31 143 -23 41 -20 57 5 27 7 -8 24 -15 37 -15 25 0 25 2 21 50 -6 58 -46 126
-84 140 -37 14 -105 11 -136 -6z"/>
<path d="M7043 2790 c-50 -30 -94 -131 -73 -170 11 -21 32 -18 63 8 23 20 22
14 -8 -50 -29 -62 -32 -119 -8 -144 16 -15 18 -15 42 12 15 16 35 42 47 57
l20 29 -4 -65 c-5 -78 14 -120 63 -144 29 -14 41 -14 75 -4 48 14 71 45 77
104 8 72 -46 147 -106 147 -20 0 -23 2 -11 10 8 5 31 10 51 10 49 0 59 15 45
65 -12 40 -12 40 -74 48 -61 9 -62 9 -41 26 68 55 -76 111 -158 61z"/>
<path d="M1915 2700 c-4 -6 -4 -41 0 -77 5 -52 4 -64 -7 -61 -7 3 -17 18 -22
34 -20 68 -57 99 -117 99 -34 0 -46 -6 -70 -33 -55 -62 -30 -176 46 -208 47
-19 59 -18 93 11 30 25 52 32 52 17 0 -4 -16 -32 -35 -62 -43 -67 -42 -84 7
-88 29 -3 43 3 73 30 32 28 37 29 31 11 -12 -37 25 -48 78 -25 79 36 111 131
74 222 -11 28 -22 35 -58 44 -40 10 -46 15 -56 51 -10 36 -14 40 -46 43 -20 2
-39 -2 -43 -8z"/>
<path d="M2422 2650 c-66 -47 -69 -119 -6 -112 28 3 28 3 10 -17 -26 -29 -84
-54 -111 -47 -25 7 -35 -8 -35 -53 0 -15 -9 -45 -20 -66 -20 -38 -20 -41 -3
-50 35 -20 73 -64 73 -85 0 -29 25 -36 57 -15 30 20 117 25 135 7 9 -9 3 -15
-26 -27 -71 -30 -57 -74 30 -93 31 -6 61 -9 67 -5 13 8 0 121 -17 149 -9 12
-30 24 -50 28 -48 9 -53 22 -25 72 l23 44 -38 39 -39 40 38 42 c34 38 37 45
32 84 -8 58 -24 95 -40 95 -8 0 -33 -13 -55 -30z"/>
<path d="M2164 2619 c-8 -13 5 -108 18 -134 28 -54 68 -67 68 -21 0 35 15 49
44 42 22 -5 26 -3 26 17 0 35 -53 78 -121 97 -17 5 -31 5 -35 -1z"/>
<path d="M8473 2570 c-67 -41 -82 -119 -32 -169 53 -53 127 -30 148 44 12 46
-2 98 -36 125 -32 25 -40 25 -80 0z"/>
<path d="M9662 2517 c-28 -16 -62 -70 -62 -98 0 -29 36 -76 71 -94 61 -32 119
18 119 103 0 76 -67 122 -128 89z"/>
<path d="M2537 2463 c-13 -12 -7 -40 13 -58 19 -17 19 -20 4 -36 -22 -24 -11
-49 22 -49 31 0 130 92 119 110 -17 28 -138 53 -158 33z"/>
<path d="M11352 2440 c-18 -23 -30 -30 -58 -30 -50 0 -53 -22 -10 -84 20 -29
36 -55 36 -58 0 -3 -11 -3 -24 -1 -48 10 -46 -39 4 -102 32 -40 42 -105 17
-105 -18 0 -50 36 -72 80 -10 19 -24 43 -33 53 -14 15 -18 16 -37 3 -25 -17
-45 -5 -45 26 0 19 -33 58 -50 58 -6 0 -15 -11 -20 -25 -6 -17 -20 -27 -40
-32 -39 -7 -50 -28 -50 -92 0 -67 14 -101 41 -101 12 0 36 -16 54 -36 31 -33
35 -35 81 -29 59 8 107 -7 102 -32 -4 -24 -42 -32 -119 -26 l-66 6 5 -33 c5
-37 -8 -50 -53 -50 -53 0 -72 -34 -30 -50 l25 -10 -20 -20 c-38 -38 -18 -102
35 -112 11 -2 25 -14 32 -28 11 -23 17 -26 41 -21 5 0 17 19 27 41 17 37 26
45 49 41 33 -7 55 12 70 57 18 54 48 92 72 92 21 0 15 -42 -16 -125 -41 -111
-37 -215 9 -215 12 0 21 -11 27 -31 15 -54 35 -57 89 -16 26 21 54 37 61 37
28 0 25 23 -10 76 -33 49 -34 54 -15 51 42 -4 46 27 11 95 -32 63 -41 111 -22
123 5 3 28 -24 51 -61 33 -52 52 -71 84 -85 33 -15 44 -26 49 -50 7 -38 35
-36 54 5 12 25 18 27 47 22 56 -11 81 30 50 84 -19 33 -19 50 0 50 22 0 18 37
-4 50 -11 5 -36 10 -55 10 -31 0 -37 4 -42 28 -9 36 -20 42 -76 42 -79 0 -76
37 3 47 51 7 71 19 67 42 -5 29 10 39 50 34 28 -4 43 0 55 12 21 20 22 35 2
35 -19 0 -19 21 0 46 8 10 15 29 15 42 0 30 -45 75 -68 68 -12 -4 -21 1 -27
17 -16 35 -47 28 -68 -15 -16 -32 -22 -37 -43 -32 -33 8 -50 -8 -84 -83 -22
-48 -34 -63 -49 -63 -31 0 -27 34 11 107 27 51 31 66 22 80 -7 10 -19 17 -28
17 -21 -2 -20 0 9 44 14 20 25 46 25 58 0 24 -24 49 -39 40 -5 -4 -22 9 -38
29 -15 19 -33 35 -39 35 -5 0 -20 -13 -32 -30z"/>
<path d="M2149 2377 c-17 -12 -48 -41 -67 -64 l-34 -43 47 -20 c107 -46 160
-33 138 33 -6 18 -14 48 -17 69 -8 46 -26 53 -67 25z"/>
<path d="M5027 2378 c-14 -13 -37 -53 -52 -90 -31 -77 -30 -115 5 -195 13 -29
21 -56 17 -59 -12 -13 -58 27 -104 92 -26 35 -54 64 -63 64 -21 0 -60 -69 -60
-107 0 -18 24 -67 65 -133 90 -145 88 -169 -5 -75 -30 30 -57 55 -61 55 -15 0
-41 -90 -35 -120 7 -37 79 -145 109 -164 48 -31 219 -32 259 -2 10 7 21 27 24
45 6 31 5 32 -55 58 -75 32 -65 43 41 43 102 0 123 11 159 82 16 31 29 61 29
66 0 5 -33 12 -72 16 -138 12 -175 35 -89 56 62 15 111 65 152 157 l29 63 -49
73 c-27 40 -61 78 -75 85 -15 7 -53 12 -86 12 -47 0 -64 -4 -83 -22z"/>
<path d="M2710 2362 c-49 -24 -83 -91 -77 -153 5 -62 36 -123 64 -127 18 -3
23 3 29 35 l8 38 12 -53 c15 -65 37 -100 69 -108 40 -10 48 3 42 67 -3 33 -3
59 -2 59 2 0 12 -16 21 -36 21 -45 67 -74 115 -74 97 0 142 128 73 209 -36 43
-73 48 -140 17 -62 -28 -62 -31 8 55 21 25 38 48 38 51 0 12 -71 30 -93 24
-13 -3 -42 -22 -65 -41 -45 -39 -52 -39 -26 0 13 20 14 28 4 40 -16 20 -37 19
-80 -3z"/>
<path d="M4096 2335 c-77 -27 -139 -114 -140 -195 0 -34 9 -61 33 -103 43 -75
62 -87 138 -87 46 0 63 -4 63 -13 0 -28 -39 -48 -112 -59 -41 -6 -78 -17 -85
-25 -16 -20 -1 -60 38 -102 l30 -34 67 9 c93 11 166 11 171 -1 2 -5 -25 -19
-60 -31 -72 -24 -81 -40 -50 -91 24 -38 60 -48 147 -38 83 9 119 34 171 120
53 88 61 124 38 176 -35 76 -46 73 -105 -25 -19 -31 -38 -56 -43 -56 -19 0 4
67 55 168 l53 103 -30 57 c-17 31 -37 57 -45 57 -8 0 -33 -29 -56 -65 -64
-100 -80 -117 -95 -103 -10 10 -9 25 4 73 9 33 17 70 17 83 0 36 -57 143 -91
172 -34 28 -57 30 -113 10z"/>
<path d="M8642 2295 c-25 -22 -53 -37 -80 -41 -24 -4 -45 -12 -49 -18 -13 -20
-2 -70 19 -93 24 -26 87 -31 125 -10 30 16 70 71 84 115 11 33 10 37 -15 59
-15 13 -31 23 -37 23 -5 0 -26 -16 -47 -35z"/>
<path d="M9482 2290 c-12 -5 -25 -17 -29 -26 -7 -18 32 -106 65 -146 21 -25
30 -28 85 -28 79 0 89 7 85 56 -3 36 -6 40 -43 52 -24 8 -57 31 -81 58 -43 47
-46 48 -82 34z"/>
<path d="M8793 2218 c-11 -13 -31 -43 -45 -68 -42 -74 -59 -84 -150 -91 -53
-4 -83 -10 -89 -20 -16 -25 -10 -68 10 -79 41 -21 230 -3 261 25 19 17 92 152
104 192 6 18 1 26 -26 43 -41 25 -40 25 -65 -2z"/>
<path d="M9338 2192 c-16 -9 -28 -26 -28 -37 0 -32 83 -186 111 -207 13 -9 51
-24 84 -33 116 -29 185 -13 185 44 0 45 -30 63 -114 70 -87 7 -104 19 -136 94
-24 56 -47 87 -64 87 -6 0 -23 -8 -38 -18z"/>
<path d="M2264 2174 c-8 -33 1 -153 13 -165 13 -13 77 34 103 76 12 19 20 45
18 57 -2 19 -9 23 -39 23 -21 0 -45 8 -56 18 -26 23 -31 22 -39 -9z"/>
<path d="M2020 2175 c-16 -20 -6 -45 19 -45 11 0 23 -4 26 -10 11 -17 -40 -11
-89 11 -44 19 -49 19 -71 5 -29 -19 -46 -48 -37 -63 4 -5 32 -24 62 -41 l55
-32 -46 0 c-77 0 -129 -58 -129 -142 1 -64 45 -108 110 -108 66 0 101 41 110
130 l5 55 23 -61 c40 -110 71 -88 80 58 l5 88 16 -33 c34 -68 78 -21 65 69
-12 86 -67 134 -152 134 -23 0 -45 -6 -52 -15z"/>
<path d="M8936 2114 c-14 -16 -45 -63 -68 -106 -85 -155 -71 -142 -136 -134
-229 25 -232 25 -232 -50 0 -66 9 -69 198 -69 l164 0 64 126 c72 143 94 211
78 237 -17 27 -40 25 -68 -4z"/>
<path d="M9198 2114 c-14 -7 -29 -21 -32 -31 -5 -11 21 -74 71 -179 l78 -161
44 -7 c78 -11 286 -7 299 6 16 16 15 63 0 76 -7 5 -56 13 -108 17 -52 3 -110
14 -128 22 -38 18 -74 67 -130 179 -23 45 -47 84 -54 87 -8 2 -25 -1 -40 -9z"/>
<path d="M2415 2046 c-17 -7 -43 -28 -59 -46 -22 -26 -26 -41 -24 -74 3 -35 6
-41 25 -40 20 0 20 -1 -7 -35 -38 -49 -44 -74 -25 -111 8 -16 18 -30 21 -30 3
0 24 16 47 35 64 55 72 46 32 -32 -22 -42 -24 -53 -14 -87 17 -61 58 -96 112
-96 113 0 145 128 56 225 -21 23 -39 44 -39 47 0 2 29 2 65 0 64 -4 65 -4 65
20 0 37 -36 76 -75 84 l-34 6 21 29 c18 24 20 33 10 53 -24 53 -116 80 -177
52z"/>
<path d="M9035 1888 c-44 -109 -50 -131 -50 -198 0 -63 6 -92 39 -180 21 -58
42 -109 46 -113 4 -5 22 27 40 70 87 206 89 240 28 420 -23 67 -44 123 -47
123 -3 0 -28 -55 -56 -122z"/>
<path d="M4592 1690 c-29 -56 -52 -114 -52 -131 0 -31 25 -89 38 -89 4 0 18
18 32 40 30 48 47 50 85 10 34 -36 49 -37 69 -8 28 39 19 72 -45 169 -34 52
-64 97 -68 102 -4 4 -31 -38 -59 -93z"/>
<path d="M8520 1673 c0 -9 129 -217 148 -239 43 -51 139 -83 250 -84 51 0 53
1 47 23 -12 38 -98 178 -135 218 -34 39 -37 39 -172 63 -76 13 -138 21 -138
19z"/>
<path d="M8371 1626 c-16 -19 -4 -66 51 -196 26 -63 48 -118 48 -123 0 -4 -31
-65 -70 -135 -38 -70 -70 -137 -70 -149 0 -15 10 -24 33 -33 31 -11 34 -9 67
28 19 21 66 94 103 162 l68 122 -22 52 c-38 89 -96 200 -128 244 -32 43 -59
53 -80 28z"/>
<path d="M9422 1609 c-23 -4 -56 -17 -72 -29 -63 -45 -187 -210 -174 -231 5
-8 40 -10 113 -7 141 7 170 22 250 128 60 81 79 119 66 139 -7 13 -120 13
-183 0z"/>
<path d="M9715 1563 c-26 -29 -91 -137 -140 -232 -20 -40 -25 -62 -21 -85 10
-46 144 -316 161 -322 25 -10 65 23 65 53 0 15 -25 83 -57 151 l-56 124 67
136 c36 75 66 144 66 153 0 18 -31 49 -48 49 -6 0 -23 -12 -37 -27z"/>
<path d="M5425 1563 c-35 -9 -52 -31 -89 -121 -45 -109 -74 -158 -87 -145 -6
6 -1 36 12 80 27 88 22 103 -29 103 -51 0 -75 -27 -107 -120 -32 -93 -31 -134
1 -216 37 -91 79 -134 132 -134 22 0 44 4 47 10 3 5 -8 42 -25 82 -32 76 -36
98 -21 98 13 0 50 -50 99 -135 22 -39 48 -78 59 -87 36 -33 133 -35 133 -3 0
7 -18 51 -40 96 -62 128 -51 167 25 85 47 -51 104 -71 179 -62 59 7 77 21 110
92 35 74 34 127 -3 185 -49 77 -75 94 -136 92 -82 -3 -119 -23 -160 -88 -25
-38 -42 -55 -53 -53 -23 5 -19 34 23 146 19 51 35 95 35 97 0 6 -78 4 -105 -2z"/>
<path d="M8230 1530 c-23 -23 -21 -38 17 -134 13 -33 23 -69 23 -79 0 -11 -19
-58 -42 -104 l-43 -84 32 -29 c19 -17 39 -27 48 -24 16 7 66 85 113 179 l30
60 -45 100 c-24 54 -51 107 -60 117 -21 24 -48 23 -73 -2z"/>
<path d="M4913 1532 c-38 -4 -75 -45 -71 -76 2 -12 17 -28 37 -37 45 -21 52
-38 42 -95 -5 -27 -7 -52 -5 -56 2 -4 24 0 48 8 37 13 48 23 67 62 31 67 80
185 77 188 -5 4 -163 9 -195 6z"/>
<path d="M4266 1482 c-22 -4 -41 -12 -43 -17 -5 -15 71 -166 97 -193 27 -29
67 -44 91 -37 24 8 24 12 -2 70 -11 25 -18 50 -14 53 4 4 25 16 48 27 48 23
58 52 28 79 -21 19 -136 29 -205 18z"/>
<path d="M4637 1452 c-26 -66 -61 -99 -112 -106 -24 -4 -47 -10 -49 -14 -2 -4
2 -34 10 -67 10 -41 12 -84 8 -132 l-6 -73 55 0 c59 0 55 3 116 -79 23 -31 46
-23 64 21 20 47 38 59 101 65 65 7 66 8 35 99 -20 59 -20 64 -5 117 24 83 24
84 -42 90 -72 6 -91 17 -126 73 -15 24 -29 44 -31 44 -1 0 -10 -17 -18 -38z"/>
<path d="M9801 1389 c-61 -120 -63 -152 -22 -244 56 -123 81 -144 130 -106
l24 18 -34 96 -33 95 37 91 c20 50 37 95 37 100 0 18 -43 51 -66 51 -19 0 -32
-18 -73 -101z"/>
<path d="M8083 1450 l-32 -19 14 -42 c19 -53 19 -77 -1 -125 l-16 -38 31 -28
c33 -30 39 -32 58 -20 18 11 73 121 73 146 0 11 -13 49 -30 84 -32 69 -45 74
-97 42z"/>
<path d="M3823 1453 c-13 -2 -23 -8 -23 -12 0 -5 18 -49 40 -99 39 -88 49
-132 31 -132 -5 0 -33 27 -62 60 -49 57 -54 60 -98 60 -104 0 -163 -42 -196
-139 -21 -62 -19 -86 12 -143 34 -63 66 -79 168 -85 91 -6 90 -6 135 76 27 49
60 67 60 32 0 -10 -16 -66 -35 -122 -19 -57 -35 -105 -35 -107 0 -5 104 10
128 19 23 9 48 57 87 162 20 57 64 113 65 84 0 -10 -8 -47 -17 -81 -19 -73
-14 -96 21 -96 61 0 150 136 151 230 0 52 -51 169 -92 213 -21 21 -36 27 -70
27 -38 0 -43 -3 -43 -22 0 -13 9 -43 20 -67 44 -95 16 -108 -39 -18 -91 146
-91 146 -129 157 -38 10 -41 10 -79 3z"/>
<path d="M7823 1425 c-32 -22 -48 -89 -34 -137 13 -43 35 -58 86 -58 45 0 95
45 95 85 0 43 -27 93 -59 109 -38 20 -61 20 -88 1z"/>
<path d="M9987 1360 c-18 -16 -42 -47 -52 -69 -17 -40 -17 -41 5 -93 44 -105
65 -119 116 -75 l27 24 -18 51 c-18 49 -18 54 -2 87 22 47 22 82 -2 95 -29 15
-37 13 -74 -20z"/>
<path d="M10228 1340 c-66 -51 -73 -145 -15 -180 76 -47 147 -5 147 87 0 28
-8 44 -39 74 -44 44 -58 47 -93 19z"/>
<path d="M8910 1240 c-19 -5 -69 -12 -110 -16 -91 -8 -118 -21 -163 -76 -45
-55 -102 -146 -112 -177 l-7 -24 98 6 c136 8 170 20 225 77 56 57 133 184 125
205 -6 17 -6 17 -56 5z"/>
<path d="M9168 1215 c-9 -9 32 -90 89 -176 29 -45 55 -73 80 -84 42 -20 260
-61 271 -51 9 10 -44 105 -103 184 -69 92 -124 121 -243 129 -48 3 -90 2 -94
-2z"/>
<path d="M4933 1165 c-3 -9 2 -36 12 -60 19 -50 14 -65 -20 -65 -41 0 -55 -11
-55 -42 0 -24 7 -32 43 -48 47 -22 155 -27 188 -10 10 6 19 21 19 33 -1 29
-33 99 -66 143 -43 55 -108 82 -121 49z"/>
<path d="M9016 1070 c-68 -148 -74 -174 -52 -262 22 -93 68 -219 81 -221 12
-2 55 82 96 188 29 73 31 84 21 130 -10 53 -79 244 -91 258 -4 4 -29 -38 -55
-93z"/>
<path d="M4342 1115 c-35 -43 -89 -193 -79 -220 7 -16 15 -17 75 -11 136 14
187 40 175 87 -6 23 -17 30 -57 39 -31 6 -31 7 -31 71 0 62 -1 64 -26 67 -20
2 -34 -5 -57 -33z"/>
<path d="M4729 898 l-39 -43 -31 33 c-35 39 -60 38 -73 -1 -8 -20 -6 -39 6
-72 22 -57 84 -154 104 -162 23 -9 48 27 84 119 32 82 38 136 18 156 -18 18
-26 15 -69 -30z"/>
<path d="M4999 847 c-78 -18 -100 -35 -154 -121 -58 -93 -67 -137 -35 -171 34
-36 54 -31 95 25 67 92 75 55 14 -71 -23 -46 -45 -97 -50 -113 -11 -38 4 -97
35 -132 l23 -27 17 24 c9 13 37 59 62 102 42 72 66 98 81 84 3 -3 -5 -39 -17
-79 -30 -97 -30 -98 -13 -138 24 -59 66 -112 100 -127 18 -7 57 -13 86 -13 67
0 100 23 133 94 33 71 31 126 -5 190 -46 80 -72 100 -128 97 -56 -2 -83 6 -83
23 0 24 24 34 105 45 107 15 115 25 80 89 -36 66 -55 72 -177 59 -106 -11
-138 -6 -118 18 7 8 28 17 49 20 76 13 81 15 81 38 0 13 -12 37 -27 55 -34 39
-73 47 -154 29z"/>
<path d="M8507 852 c-30 -3 -40 -9 -48 -30 -15 -39 3 -69 48 -81 21 -5 88 -13
148 -16 l110 -7 45 -106 c61 -146 124 -207 145 -141 12 37 -6 97 -70 227 l-63
129 -98 12 c-131 14 -172 17 -217 13z"/>
<path d="M9310 817 c-24 -12 -82 -101 -168 -258 l-42 -76 36 -26 c20 -14 43
-23 50 -20 14 5 111 156 141 219 l17 34 110 0 c61 0 128 5 149 11 33 9 37 13
37 43 0 19 -6 38 -12 44 -7 5 -70 15 -139 21 -70 6 -133 13 -140 16 -8 3 -25
-1 -39 -8z"/>
<path d="M4328 810 c-26 -3 -56 -14 -67 -24 -22 -20 -46 -80 -37 -94 3 -5 36
-12 72 -15 135 -13 96 -45 -67 -56 -66 -5 -114 -13 -124 -21 -43 -36 -61 -122
-27 -135 9 -3 54 -9 99 -12 127 -9 141 -35 29 -53 -32 -5 -65 -15 -74 -22 -24
-20 -82 -153 -82 -188 0 -39 40 -110 86 -150 31 -27 41 -30 103 -30 78 0 96
13 130 92 44 104 45 123 11 195 -53 114 -5 107 81 -10 56 -76 72 -81 100 -27
35 64 26 107 -42 211 -34 51 -63 99 -66 106 -11 27 20 11 71 -37 29 -28 56
-50 59 -50 10 0 47 77 47 97 0 30 -117 195 -148 209 -30 12 -106 19 -154 14z"/>
<path d="M8515 663 c-50 -5 -65 -18 -65 -53 0 -38 17 -49 89 -57 85 -8 118
-33 161 -118 34 -67 37 -70 69 -68 18 0 40 8 49 17 14 13 13 21 -7 74 -11 33
-37 94 -56 136 l-36 76 -82 -2 c-45 -1 -100 -3 -122 -5z"/>
<path d="M9428 633 c-49 -6 -75 -34 -134 -147 -54 -105 -54 -128 3 -134 39 -4
84 33 111 91 19 41 24 45 68 51 26 3 68 6 93 6 26 0 52 5 59 12 16 16 15 93
-2 107 -14 12 -140 21 -198 14z"/>
<path d="M8466 474 c-19 -18 -21 -87 -3 -101 6 -6 27 -13 46 -17 18 -3 51 -22
72 -41 42 -38 69 -44 92 -20 12 12 13 22 5 49 -30 98 -163 180 -212 130z"/>
<path d="M9516 436 c-63 -18 -120 -90 -114 -143 2 -14 15 -35 30 -46 l27 -20
49 51 c37 40 55 52 78 52 37 0 54 16 54 50 0 50 -55 75 -124 56z"/>
<path d="M8394 236 c-63 -28 -67 -126 -7 -182 36 -33 65 -30 101 11 58 65 49
150 -19 174 -39 13 -37 13 -75 -3z"/>
<path d="M9576 179 c-21 -24 -26 -41 -26 -84 0 -46 4 -56 28 -75 21 -17 36
-21 65 -17 57 8 87 40 87 95 0 37 -6 50 -34 78 -45 45 -84 46 -120 3z"/>
</g>
</svg>
