<svg width="25" height="25" viewBox="0 0 25 25" fill="none" xmlns="http://www.w3.org/2000/svg">
<path fill-rule="evenodd" clip-rule="evenodd" d="M6.75563 19.1963C11.0337 18.5713 13.9794 18.625 18.2631 19.2181C18.5734 19.2631 18.8568 19.4188 19.0612 19.6565C19.2656 19.8942 19.377 20.1978 19.375 20.5113C19.375 20.8113 19.2719 21.1025 19.0856 21.33C18.761 21.7266 18.4284 22.1167 18.0881 22.5H19.7388C19.8425 22.3763 19.9469 22.25 20.0525 22.1219C20.4232 21.6673 20.6255 21.0985 20.625 20.5119C20.625 19.2463 19.7012 18.1556 18.4344 17.9806C14.0494 17.3738 10.9844 17.3156 6.575 17.96C5.295 18.1469 4.375 19.2544 4.375 20.5288C4.375 21.0944 4.55938 21.6538 4.90875 22.1069C5.01188 22.2406 5.11375 22.3719 5.215 22.5006H6.82562C6.50901 22.1216 6.2002 21.7361 5.89938 21.3444C5.7206 21.1099 5.62416 20.823 5.625 20.5281C5.625 19.855 6.10875 19.2906 6.75563 19.1963ZM12.5 13.125C12.9925 13.125 13.4801 13.028 13.9351 12.8395C14.39 12.6511 14.8034 12.3749 15.1517 12.0267C15.4999 11.6784 15.7761 11.265 15.9645 10.8101C16.153 10.3551 16.25 9.86746 16.25 9.375C16.25 8.88254 16.153 8.39491 15.9645 7.93994C15.7761 7.48497 15.4999 7.07157 15.1517 6.72335C14.8034 6.37513 14.39 6.09891 13.9351 5.91045C13.4801 5.722 12.9925 5.625 12.5 5.625C11.5054 5.625 10.5516 6.02009 9.84835 6.72335C9.14509 7.42661 8.75 8.38044 8.75 9.375C8.75 10.3696 9.14509 11.3234 9.84835 12.0267C10.5516 12.7299 11.5054 13.125 12.5 13.125V13.125ZM12.5 14.375C13.8261 14.375 15.0979 13.8482 16.0355 12.9105C16.9732 11.9729 17.5 10.7011 17.5 9.375C17.5 8.04892 16.9732 6.77715 16.0355 5.83947C15.0979 4.90178 13.8261 4.375 12.5 4.375C11.1739 4.375 9.90215 4.90178 8.96447 5.83947C8.02678 6.77715 7.5 8.04892 7.5 9.375C7.5 10.7011 8.02678 11.9729 8.96447 12.9105C9.90215 13.8482 11.1739 14.375 12.5 14.375V14.375Z" fill="black"/>
<path fill-rule="evenodd" clip-rule="evenodd" d="M12.5 23.75C18.7131 23.75 23.75 18.7131 23.75 12.5C23.75 6.28688 18.7131 1.25 12.5 1.25C6.28688 1.25 1.25 6.28688 1.25 12.5C1.25 18.7131 6.28688 23.75 12.5 23.75ZM12.5 25C19.4037 25 25 19.4037 25 12.5C25 5.59625 19.4037 0 12.5 0C5.59625 0 0 5.59625 0 12.5C0 19.4037 5.59625 25 12.5 25Z" fill="black"/>
</svg>
