<svg width="401" height="37" viewBox="0 0 401 37" fill="none" xmlns="http://www.w3.org/2000/svg">
<path d="M28.9814 25.776H28.4534C27.1574 30.672 25.7174 36.048 17.1734 36.048C10.5494 36.048 5.98944 32.496 5.98944 19.008C5.98944 11.808 6.94944 1.632 17.1734 1.632C24.5174 1.632 26.6294 6.528 27.7814 11.424H28.3094V1.824H27.5894C27.1574 2.352 26.7254 2.832 25.4774 2.832C23.5574 2.832 21.5894 0.959999 17.6054 0.959999C7.81344 0.959999 0.469438 9.408 0.469438 19.008C0.469438 24.624 2.86944 28.896 5.98944 32.016C9.34944 35.328 13.2374 36.72 17.2694 36.72C21.6854 36.72 24.2774 34.992 26.1494 34.992C27.3494 34.992 27.8294 35.52 28.2614 36H28.9814V25.776ZM30.6629 36H40.9829V35.328H35.6549L40.6949 21.984H51.8309L56.8709 35.328H51.5429V36H66.3269V35.328H62.0549L48.9989 0.959999H47.8469L34.8869 35.328H30.6629V36ZM51.5429 21.312H40.9829L46.2629 7.344L51.5429 21.312ZM67.2971 36H78.6731V35.328H73.3451V4.464H73.4411L93.6491 36.672H94.6091V2.496H99.9371V1.824H88.5611V2.496H93.8891V27.984H93.7931L77.5691 1.824H67.2971V2.496H72.6251V35.328H67.2971V36ZM98.2567 36H108.577V35.328H103.249L108.289 21.984H119.425L124.465 35.328H119.137V36H133.921V35.328H129.649L116.593 0.959999H115.441L102.481 35.328H98.2567V36ZM119.137 21.312H108.577L113.857 7.344L119.137 21.312ZM135.323 36H143.483C144.443 36 145.499 36.048 146.603 36.096C147.707 36.144 148.811 36.192 149.771 36.192C154.283 36.192 156.299 36.048 159.419 34.704C164.939 32.352 169.307 27.312 169.307 18.912C169.307 11.664 165.899 5.328 158.075 2.784C155.435 1.92 153.515 1.68 149.627 1.68C148.763 1.68 147.851 1.728 146.939 1.728C146.027 1.776 145.163 1.824 144.251 1.824H135.323V2.496H140.651V35.328H135.323V36ZM145.451 2.496C146.651 2.448 147.947 2.352 149.531 2.352C160.283 2.352 163.787 8.976 163.787 19.104C163.787 23.376 163.115 26.88 161.051 30.336C158.363 34.848 154.091 35.52 149.723 35.52C147.995 35.52 146.555 35.424 145.451 35.328V2.496ZM170.35 36H180.67V35.328H175.342L180.382 21.984H191.518L196.558 35.328H191.23V36H206.014V35.328H201.742L188.686 0.959999H187.534L174.574 35.328H170.35V36ZM191.23 21.312H180.67L185.95 7.344L191.23 21.312ZM256.488 23.088H241.848V23.76H248.04V27.792C248.04 33.456 243.72 36.048 239.736 36.048C236.472 36.048 234.696 35.472 232.776 33.744C229.368 30.672 228.552 24.816 228.552 19.008C228.552 10.512 230.232 1.632 239.784 1.632C247.8 1.632 249.816 8.112 250.344 11.424H250.872V1.824H250.152C249.672 2.448 249.24 2.832 247.992 2.832C245.64 2.832 244.728 0.959999 239.832 0.959999C235.128 0.959999 231.432 2.928 228.552 5.808C226.872 7.488 223.032 11.664 223.032 19.008C223.032 24.432 225.432 28.848 228.6 32.016C231.864 35.28 235.224 36.72 239.736 36.72C245.784 36.72 247.848 33.744 250.152 33.744C251.112 33.744 251.4 33.936 252.072 34.656H252.648V23.76H256.488V23.088ZM260.803 18.864C260.803 28.128 267.859 36.72 277.507 36.72C286.867 36.72 294.211 27.84 294.211 18.864C294.211 8.64 285.955 0.959999 277.507 0.959999C269.635 0.959999 260.803 8.64 260.803 18.864ZM266.323 18.864C266.323 10.032 268.147 1.632 277.507 1.632C286.867 1.632 288.691 10.032 288.691 18.864C288.691 30.384 285.763 36.048 277.507 36.048C269.251 36.048 266.323 30.384 266.323 18.864ZM300.741 18.864C300.741 28.128 307.797 36.72 317.445 36.72C326.805 36.72 334.149 27.84 334.149 18.864C334.149 8.64 325.893 0.959999 317.445 0.959999C309.573 0.959999 300.741 8.64 300.741 18.864ZM306.261 18.864C306.261 10.032 308.085 1.632 317.445 1.632C326.805 1.632 328.629 10.032 328.629 18.864C328.629 30.384 325.701 36.048 317.445 36.048C309.189 36.048 306.261 30.384 306.261 18.864ZM341.014 36H341.734C341.974 35.376 342.214 34.944 343.174 34.944C344.278 34.944 345.91 35.616 347.158 36C349.366 36.576 350.518 36.72 353.206 36.72C360.79 36.72 365.398 31.344 365.398 25.392C365.398 18.816 359.59 17.376 357.19 16.608L351.382 14.784C348.07 13.728 344.47 12.336 344.47 8.208C344.47 3.12 349.27 1.632 352.39 1.632C357.862 1.632 360.694 5.904 361.462 10.512H362.038V1.824H361.366C360.886 2.736 360.742 2.832 359.926 2.832C358.102 2.832 356.854 0.959999 352.39 0.959999C346.198 0.959999 341.878 5.232 341.878 11.04C341.878 15.408 344.566 17.904 349.75 19.488L355.27 21.168C357.958 21.984 361.702 23.808 361.702 28.272C361.702 31.392 359.974 36.048 353.206 36.048C349.654 36.048 343.75 36.096 341.542 25.68H341.014V36ZM370.87 36H400.15V25.488H399.622C399.238 28.416 397.078 35.328 390.07 35.328H380.998V18H384.886C389.494 18 390.262 21.504 391.126 25.2H391.654V10.272H391.126C389.734 16.032 388.39 17.328 384.118 17.328H380.998V2.496H388.966C394.246 2.496 396.166 5.136 397.798 10.128H398.326V1.824H370.87V2.496H376.198V35.328H370.87V36Z" fill="black"/>
</svg>